<?xml version="1.0" encoding="UTF-8" standalone="no"?>
<!-- Created with Inkscape (http://www.inkscape.org/) -->

<svg
   xmlns:dc="http://purl.org/dc/elements/1.1/"
   xmlns:cc="http://creativecommons.org/ns#"
   xmlns:rdf="http://www.w3.org/1999/02/22-rdf-syntax-ns#"
   xmlns:svg="http://www.w3.org/2000/svg"
   xmlns="http://www.w3.org/2000/svg"
   xmlns:sodipodi="http://sodipodi.sourceforge.net/DTD/sodipodi-0.dtd"
   xmlns:inkscape="http://www.inkscape.org/namespaces/inkscape"
   width="180"
   height="180"
   id="svg2"
   version="1.1"
   inkscape:version="0.48.2 r9819"
   sodipodi:docname="error.svg">
  <defs
     id="defs4" />
  <sodipodi:namedview
     id="base"
     pagecolor="#515151"
     bordercolor="#666666"
     borderopacity="1.0"
     inkscape:pageopacity="0"
     inkscape:pageshadow="2"
     inkscape:zoom="0.70710678"
     inkscape:cx="317.40181"
     inkscape:cy="3.3004379"
     inkscape:document-units="px"
     inkscape:current-layer="layer2"
     showgrid="false"
     inkscape:window-width="1440"
     inkscape:window-height="852"
     inkscape:window-x="0"
     inkscape:window-y="0"
     inkscape:window-maximized="1"
     inkscape:snap-bbox="true" />
  <metadata
     id="metadata7">
    <rdf:RDF>
      <cc:Work
         rdf:about="">
        <dc:format>image/svg+xml</dc:format>
        <dc:type
           rdf:resource="http://purl.org/dc/dcmitype/StillImage" />
        <dc:title></dc:title>
      </cc:Work>
    </rdf:RDF>
  </metadata>
  <g
     inkscape:label="Layer 1"
     inkscape:groupmode="layer"
     id="layer1"
     transform="translate(0,-872.36218)"
     style="display:inline">
    <g
       id="g2991"
       transform="matrix(1.0104628,0,0,0.99986752,-0.01109559,200.07318)"
       style="stroke:none" />
    <g
       transform="matrix(0.50272062,0,0,0.49003516,0.99445022,682.6586)"
       id="g2994"
       style="stroke:none" />
    <g
       id="g2998"
       transform="matrix(0.50272062,0,0,0.49003516,100.4921,682.6586)"
       style="stroke:none" />
    <g
       transform="matrix(0.50272062,0,0,0.49003516,199.98974,682.6586)"
       id="g3014"
       style="stroke:none" />
    <g
       id="g3018"
       transform="matrix(0.50272062,0,0,0.49003516,299.48739,682.6586)"
       style="stroke:none" />
  </g>
  <g
     inkscape:groupmode="layer"
     id="layer2"
     inkscape:label="Layer"
     style="display:inline"
     transform="translate(0,-120)">
    <path
       inkscape:connector-curvature="0"
       id="path3101"
       d="m 90,127.07107 c -45.800378,0 -82.9289322,37.12855 -82.9289322,82.92893 0,45.80038 37.1285542,82.92893 82.9289322,82.92893 45.80038,0 82.92893,-37.12855 82.92893,-82.92893 0,-45.80038 -37.12855,-82.92893 -82.92893,-82.92893 z m 0,18.42865 c 14.97617,0 28.73189,5.14283 39.67919,13.70631 L 39.206029,249.67919 C 30.642548,238.73189 25.499719,224.97617 25.499719,210 25.499719,174.37747 54.377472,145.49972 90,145.49972 z m 53.61586,28.56441 c 6.89994,10.26811 10.88442,22.6349 10.88442,35.93587 0,35.62253 -28.87775,64.50028 -64.50028,64.50028 -13.300971,0 -25.667758,-3.98448 -35.935871,-10.88442 l 89.551731,-89.55173 z"
       style="opacity:0.95999995;fill:#ffffff;fill-opacity:1;fill-rule:nonzero;stroke:none" />
  </g>
</svg>
