<?xml version="1.0" encoding="UTF-8" standalone="no"?>
<!-- Generator: Adobe Illustrator 15.0.0, SVG Export Plug-In . SVG Version: 6.00 Build 0)  -->

<svg
   xmlns:dc="http://purl.org/dc/elements/1.1/"
   xmlns:cc="http://creativecommons.org/ns#"
   xmlns:rdf="http://www.w3.org/1999/02/22-rdf-syntax-ns#"
   xmlns:svg="http://www.w3.org/2000/svg"
   xmlns="http://www.w3.org/2000/svg"
   xmlns:sodipodi="http://sodipodi.sourceforge.net/DTD/sodipodi-0.dtd"
   xmlns:inkscape="http://www.inkscape.org/namespaces/inkscape"
   version="1.1"
   id="Layer_1"
   x="0px"
   y="0px"
   width="400"
   height="400"
   viewBox="0 0 399.99999 399.99998"
   enable-background="new 0 0 841.89 595.28"
   xml:space="preserve"
   inkscape:version="0.48.2 r9819"
   sodipodi:docname="icon_launcher.svg"><metadata
   id="metadata71"><rdf:RDF><cc:Work
       rdf:about=""><dc:format>image/svg+xml</dc:format><dc:type
         rdf:resource="http://purl.org/dc/dcmitype/StillImage" /><dc:title></dc:title></cc:Work></rdf:RDF></metadata><defs
   id="defs69" /><sodipodi:namedview
   pagecolor="#ffffff"
   bordercolor="#666666"
   borderopacity="1"
   objecttolerance="10"
   gridtolerance="10"
   guidetolerance="10"
   inkscape:pageopacity="0"
   inkscape:pageshadow="2"
   inkscape:window-width="1440"
   inkscape:window-height="852"
   id="namedview67"
   showgrid="false"
   inkscape:zoom="1.5858083"
   inkscape:cx="249.55158"
   inkscape:cy="288.38751"
   inkscape:window-x="0"
   inkscape:window-y="0"
   inkscape:window-maximized="1"
   inkscape:current-layer="Layer_1"
   showguides="true"
   inkscape:guide-bbox="true" />


<g
   id="g23"
   transform="matrix(4.2928373,0,0,4.2928373,-697.8868,-1036.6085)">
	<g
   id="g25">
		<path
   stroke-miterlimit="10"
   d="m 233.805,320.563 c 0,6.627 -5.373,12 -12,12 h -39.213 c -6.627,0 -12,-5.373 -12,-12 V 263.79 c 0,-6.627 5.373,-12 12,-12 h 39.213 c 6.627,0 12,5.373 12,12 v 56.773 z"
   id="path27"
   inkscape:connector-curvature="0"
   style="fill:none;stroke:#ffffff;stroke-width:0.69883847;stroke-miterlimit:10" />
		
			<line
   stroke-miterlimit="10"
   x1="179.996"
   y1="283.26901"
   x2="224.39999"
   y2="283.26901"
   id="line29"
   style="fill:none;stroke:#ffffff;stroke-width:0.69883847;stroke-linecap:round;stroke-miterlimit:10" />
		
			<line
   stroke-miterlimit="10"
   x1="179.996"
   y1="274.21301"
   x2="201.02901"
   y2="274.21301"
   id="line31"
   style="fill:none;stroke:#ffffff;stroke-width:0.69883847;stroke-linecap:round;stroke-miterlimit:10" />
		
			<line
   stroke-miterlimit="10"
   x1="179.996"
   y1="292.32599"
   x2="224.39999"
   y2="292.32599"
   id="line33"
   style="fill:none;stroke:#ffffff;stroke-width:0.69883847;stroke-linecap:round;stroke-miterlimit:10" />
		
			<line
   stroke-miterlimit="10"
   x1="179.996"
   y1="301.38199"
   x2="224.39999"
   y2="301.38199"
   id="line35"
   style="fill:none;stroke:#ffffff;stroke-width:0.69883847;stroke-linecap:round;stroke-miterlimit:10" />
		
			<line
   stroke-miterlimit="10"
   x1="179.996"
   y1="310.43701"
   x2="224.39999"
   y2="310.43701"
   id="line37"
   style="fill:none;stroke:#ffffff;stroke-width:0.69883847;stroke-linecap:round;stroke-miterlimit:10" />
	</g>
	<g
   id="g39">
		<g
   id="g41">
			<circle
   cx="234.881"
   cy="256.409"
   r="13.195"
   id="circle43"
   sodipodi:cx="234.881"
   sodipodi:cy="256.409"
   sodipodi:rx="13.195"
   sodipodi:ry="13.195"
   style="fill:#f49819"
   d="m 248.076,256.409 c 0,7.28739 -5.90761,13.195 -13.195,13.195 -7.2874,0 -13.195,-5.90761 -13.195,-13.195 0,-7.2874 5.9076,-13.195 13.195,-13.195 7.28739,0 13.195,5.9076 13.195,13.195 z" />
		</g>
		<g
   id="g45">
			<path
   d="m 232,254.379 4.266,-0.195 v 8.152 c 0,0.219 0.07,0.388 0.21,0.508 0.14,0.119 0.354,0.18 0.641,0.18 h 0.646 v 0.953 H 232 v -0.953 h 0.636 c 0.342,0 0.583,-0.079 0.723,-0.236 0.14,-0.157 0.21,-0.431 0.21,-0.82 v -5.558 c 0,-0.349 -0.101,-0.618 -0.302,-0.81 -0.202,-0.191 -0.48,-0.287 -0.836,-0.287 H 232 v -0.934 z m 2.635,-5.537 c 0.458,0 0.851,0.162 1.179,0.487 0.328,0.324 0.492,0.72 0.492,1.185 0,0.465 -0.164,0.859 -0.492,1.184 -0.328,0.325 -0.721,0.487 -1.179,0.487 -0.465,0 -0.861,-0.164 -1.189,-0.492 -0.328,-0.328 -0.492,-0.721 -0.492,-1.179 0,-0.465 0.164,-0.86 0.492,-1.185 0.328,-0.325 0.724,-0.487 1.189,-0.487 z"
   id="path47"
   inkscape:connector-curvature="0"
   style="fill:#ffffff" />
		</g>
	</g>
</g>

</svg>