<?xml version="1.0" encoding="UTF-8" standalone="no"?>
<!-- Generator: Adobe Illustrator 15.0.0, SVG Export Plug-In . SVG Version: 6.00 Build 0)  -->

<svg
   xmlns:dc="http://purl.org/dc/elements/1.1/"
   xmlns:cc="http://creativecommons.org/ns#"
   xmlns:rdf="http://www.w3.org/1999/02/22-rdf-syntax-ns#"
   xmlns:svg="http://www.w3.org/2000/svg"
   xmlns="http://www.w3.org/2000/svg"
   xmlns:sodipodi="http://sodipodi.sourceforge.net/DTD/sodipodi-0.dtd"
   xmlns:inkscape="http://www.inkscape.org/namespaces/inkscape"
   version="1.1"
   id="Layer_1"
   x="0px"
   y="0px"
   width="480"
   height="216"
   viewBox="0 0 479.99999 215.99999"
   enable-background="new 0 0 841.89 595.28"
   xml:space="preserve"
   inkscape:version="0.48.2 r9819"
   sodipodi:docname="icon.svg"><metadata
   id="metadata71"><rdf:RDF><cc:Work
       rdf:about=""><dc:format>image/svg+xml</dc:format><dc:type
         rdf:resource="http://purl.org/dc/dcmitype/StillImage" /></cc:Work></rdf:RDF></metadata><defs
   id="defs69" /><sodipodi:namedview
   pagecolor="#ffffff"
   bordercolor="#666666"
   borderopacity="1"
   objecttolerance="10"
   gridtolerance="10"
   guidetolerance="10"
   inkscape:pageopacity="0"
   inkscape:pageshadow="2"
   inkscape:window-width="1920"
   inkscape:window-height="1032"
   id="namedview67"
   showgrid="false"
   inkscape:zoom="0.39645207"
   inkscape:cx="104.3872"
   inkscape:cy="297.64001"
   inkscape:window-x="0"
   inkscape:window-y="22"
   inkscape:window-maximized="1"
   inkscape:current-layer="Layer_1" />



<g
   id="g49"
   transform="translate(-351.8615,-148.06401)">
	<g
   id="g51">
		<circle
   cx="585.185"
   cy="292.68399"
   r="24.077999"
   id="circle53"
   sodipodi:cx="585.185"
   sodipodi:cy="292.68399"
   sodipodi:rx="24.077999"
   sodipodi:ry="24.077999"
   style="fill:#ffffff"
   d="m 609.263,292.68399 c 0,13.29791 -10.78009,24.078 -24.078,24.078 -13.29791,0 -24.078,-10.78009 -24.078,-24.078 0,-13.29791 10.78009,-24.078 24.078,-24.078 13.29791,0 24.078,10.78009 24.078,24.078 z" />
		<path
   stroke-miterlimit="10"
   d="m 617.082,320.564 c 0,6.627 -5.373,12 -12,12 h -39.213 c -6.628,0 -12,-5.373 -12,-12 V 263.79 c 0,-6.627 5.372,-12 12,-12 h 39.213 c 6.627,0 12,5.373 12,12 v 56.774 z"
   id="path55"
   inkscape:connector-curvature="0"
   style="fill:none;stroke:#ffffff;stroke-width:3;stroke-miterlimit:10" />
		<circle
   stroke-miterlimit="10"
   cx="585.43903"
   cy="292.42801"
   r="16.667"
   id="circle57"
   sodipodi:cx="585.43903"
   sodipodi:cy="292.42801"
   sodipodi:rx="16.667"
   sodipodi:ry="16.667"
   style="fill:none;stroke:#1d1d1b;stroke-width:1;stroke-miterlimit:10"
   d="m 602.10603,292.42801 c 0,9.20493 -7.46207,16.667 -16.667,16.667 -9.20493,0 -16.667,-7.46207 -16.667,-16.667 0,-9.20493 7.46207,-16.667 16.667,-16.667 9.20493,0 16.667,7.46207 16.667,16.667 z" />
	</g>
	<g
   id="g59">
		<g
   id="g61">
			<circle
   cx="618.159"
   cy="256.41"
   r="13.195"
   id="circle63"
   sodipodi:cx="618.159"
   sodipodi:cy="256.41"
   sodipodi:rx="13.195"
   sodipodi:ry="13.195"
   style="fill:#ffe50a"
   d="m 631.354,256.41 c 0,7.2874 -5.90761,13.195 -13.195,13.195 -7.2874,0 -13.195,-5.9076 -13.195,-13.195 0,-7.28739 5.9076,-13.195 13.195,-13.195 7.28739,0 13.195,5.90761 13.195,13.195 z" />
		</g>
		<text
   transform="translate(611.9414,261.9775)"
   font-size="21"
   id="text65"
   style="font-size:21px;fill:#010202;font-family:CenturySchoolbook-Bold">e</text>

	</g>
</g>
</svg>