<?xml version="1.0" encoding="UTF-8" standalone="no"?>
<!-- Created with Inkscape (http://www.inkscape.org/) -->

<svg
   xmlns:dc="http://purl.org/dc/elements/1.1/"
   xmlns:cc="http://creativecommons.org/ns#"
   xmlns:rdf="http://www.w3.org/1999/02/22-rdf-syntax-ns#"
   xmlns:svg="http://www.w3.org/2000/svg"
   xmlns="http://www.w3.org/2000/svg"
   version="1.1"
   width="400"
   height="300"
   id="svg2">
  <defs
     id="defs4" />
  <metadata
     id="metadata7">
    <rdf:RDF>
      <cc:Work
         rdf:about="">
        <dc:format>image/svg+xml</dc:format>
        <dc:type
           rdf:resource="http://purl.org/dc/dcmitype/StillImage" />
        <dc:title></dc:title>
      </cc:Work>
    </rdf:RDF>
  </metadata>
  <g
     transform="translate(0,-752.36218)"
     id="layer1"
     style="display:inline">
    <g
       transform="matrix(1.0104628,0,0,0.99986752,-0.01109559,200.07318)"
       id="g2991"
       style="stroke:none" />
    <g
       transform="matrix(0.50272062,0,0,0.49003516,0.99445022,682.6586)"
       id="g2994"
       style="stroke:none" />
    <g
       transform="matrix(0.50272062,0,0,0.49003516,100.4921,682.6586)"
       id="g2998"
       style="stroke:none" />
    <g
       transform="matrix(0.50272062,0,0,0.49003516,199.98974,682.6586)"
       id="g3014"
       style="stroke:none" />
    <g
       transform="matrix(0.50272062,0,0,0.49003516,299.48739,682.6586)"
       id="g3018"
       style="stroke:none" />
  </g>
  <g
     id="layer2"
     style="display:inline">
    <path
       d="m 147.23875,55.5 -154.1081233,88.97436 0,-177.948725 z"
       transform="translate(29.819413,44.486758)"
       id="path3917"
       style="fill:#ffffff;fill-opacity:1;fill-rule:nonzero;stroke:none" />
    <path
       d="m 147.23875,55.5 -154.1081233,88.97436 0,-177.948725 z"
       transform="matrix(0.43804038,0,0,0.43804038,20.009805,225.66559)"
       id="path3921"
       style="fill:#ffffff;fill-opacity:1;fill-rule:nonzero;stroke:none" />
    <g
       transform="translate(7.9437646,-0.54866709)"
       id="g3927"
       style="fill:#ffffff">
      <rect
         width="22.614834"
         height="77.948997"
         x="115"
         y="211.55099"
         id="rect3923"
         style="fill:#ffffff;fill-opacity:1;fill-rule:nonzero;stroke:none" />
      <rect
         width="22.614834"
         height="77.948997"
         x="147"
         y="211.55099"
         id="rect3925"
         style="fill:#ffffff;fill-opacity:1;fill-rule:nonzero;stroke:none" />
    </g>
    <rect
       width="10.167594"
       height="34.56982"
       x="294.90985"
       y="47.293488"
       id="rect3935"
       style="opacity:0.95999995;fill:#ffffff;fill-opacity:1;fill-rule:nonzero;stroke:none" />
    <rect
       width="10.167594"
       height="34.56982"
       x="277.74506"
       y="-194.11951"
       transform="matrix(0.70710678,0.70710678,-0.70710678,0.70710678,0,0)"
       id="rect3971"
       style="opacity:0.12000002;fill:#ffffff;fill-opacity:1;fill-rule:nonzero;stroke:none" />
    <rect
       width="10.167594"
       height="34.56982"
       x="94.902969"
       y="-352.68695"
       transform="matrix(0,1,-1,0,0,0)"
       id="rect3973"
       style="opacity:0.23999999;fill:#ffffff;fill-opacity:1;fill-rule:nonzero;stroke:none" />
    <rect
       width="10.167594"
       height="34.56982"
       x="-146.51003"
       y="-335.52216"
       transform="matrix(-0.70710678,0.70710678,-0.70710678,-0.70710678,0,0)"
       id="rect3975"
       style="opacity:0.36000001;fill:#ffffff;fill-opacity:1;fill-rule:nonzero;stroke:none" />
    <rect
       width="10.167594"
       height="34.56982"
       x="-305.07745"
       y="-152.68005"
       transform="scale(-1,-1)"
       id="rect3977"
       style="opacity:0.47999998;fill:#ffffff;fill-opacity:1;fill-rule:nonzero;stroke:none" />
    <rect
       width="10.167594"
       height="34.56982"
       x="-287.91266"
       y="88.732941"
       transform="matrix(-0.70710678,-0.70710678,0.70710678,-0.70710678,0,0)"
       id="rect3979"
       style="opacity:0.6;fill:#ffffff;fill-opacity:1;fill-rule:nonzero;stroke:none" />
    <rect
       width="10.167594"
       height="34.56982"
       x="-105.07056"
       y="247.30037"
       transform="matrix(0,-1,1,0,0,0)"
       id="rect3981"
       style="opacity:0.72000002;fill:#ffffff;fill-opacity:1;fill-rule:nonzero;stroke:none" />
    <rect
       width="10.167594"
       height="34.56982"
       x="136.34244"
       y="230.13557"
       transform="matrix(0.70710678,-0.70710678,0.70710678,0.70710678,0,0)"
       id="rect3983"
       style="opacity:0.83999999;fill:#ffffff;fill-opacity:1;fill-rule:nonzero;stroke:none" />
  </g>
</svg>
